<?xml version="1.0" encoding="UTF-8" standalone="no"?> <svg width="512" height="512" viewBox="0 0 512 512" fill="none" xmlns="http://www.w3.org/2000/svg">
<path d="M324.5 171.5H176.5C164.3 171.5 154.5 161.7 154.5 149.5V148.5C154.5 134.7 165.7 123.5 179.5 123.5H321.5C335.3 123.5 346.5 134.7 346.5 148.5V149.5C346.5 161.7 336.6 171.5 324.5 171.5ZM346.5 466.5V465.5C346.5 453.3 336.7 443.5 324.5 443.5H176.5C164.3 443.5 154.5 453.3 154.5 465.5V466.5C154.5 480.3 165.7 491.5 179.5 491.5H321.5C335.3 491.5 346.5 480.3 346.5 466.5ZM418.5 370.5C418.5 357.8 408.2 347.5 395.5 347.5H105.5C92.8 347.5 82.5 357.8 82.5 370.5C82.5 384.3 93.7 395.5 107.5 395.5H393.5C407.3 395.5 418.5 384.3 418.5 370.5ZM418.5 244.5C418.5 230.7 407.3 219.5 393.5 219.5H107.5C93.7 219.5 82.5 230.7 82.5 244.5C82.5 257.2 92.8 267.5 105.5 267.5H395.5C408.2 267.5 418.5 257.2 418.5 244.5Z" fill="#E3A15A"/>
<path d="M362.5 219.5H138.5C125.2 219.5 114.5 208.8 114.5 195.5C114.5 182.2 125.2 171.5 138.5 171.5H362.5C375.8 171.5 386.5 182.2 386.5 195.5C386.5 208.8 375.7 219.5 362.5 219.5ZM386.5 419.5C386.5 406.2 375.8 395.5 362.5 395.5H138.5C125.2 395.5 114.5 406.2 114.5 419.5C114.5 432.8 125.2 443.5 138.5 443.5H362.5C375.7 443.5 386.5 432.8 386.5 419.5ZM466.5 307.5C466.5 285.4 448.6 267.5 426.5 267.5H74.5C52.4 267.5 34.5 285.4 34.5 307.5C34.5 329.6 52.4 347.5 74.5 347.5H426.5C448.6 347.5 466.5 329.6 466.5 307.5Z" fill="#E8C861"/>
<path d="M338.5 59.5H34.5C25.7 59.5 18.5 52.3 18.5 43.5C18.5 34.7 25.7 27.5 34.5 27.5H338.5C347.3 27.5 354.5 34.7 354.5 43.5C354.5 52.3 347.3 59.5 338.5 59.5ZM266.5 59.5H234.5V123.5H266.5V59.5Z" fill="#C26A49"/>
<path d="M437 147.5C437 147.5 399.8 144.2 374.8 119.2C349.8 94.2 346.5 57 346.5 57C346.5 57 383.7 60.3 408.7 85.3C433.7 110.3 437 147.5 437 147.5Z" fill="#336E60"/>
<path d="M426.5 256V240C426.5 222.4 412.1 208 394.5 208H390C392.8 203.3 394.5 197.9 394.5 192C394.5 174.4 380.1 160 362.5 160H354.5V144C354.5 126.4 340.1 112 322.5 112H274.5V63.9998H338.5C339 63.9998 339.5 63.8998 340.1 63.7998C342.8 77.2998 350.2 102.3 369.2 121.3C395.9 148 434.7 151.8 436.4 151.9C436.6 151.9 436.9 151.9 437.1 151.9C439.2 151.9 441.2 151.1 442.8 149.6C444.5 147.9 445.3 145.6 445.1 143.2C445 141.6 441.2 102.8 414.5 75.9998C397.3 58.7998 375.2 51.1998 361.2 47.7998C362.1 45.2998 362.7 42.5998 362.7 39.7998C362.7 26.5998 351.9 15.7998 338.7 15.7998H34.7002C21.5002 15.7998 10.7002 26.5998 10.7002 39.7998C10.7002 52.9998 21.5002 63.7998 34.7002 63.7998H226.7V111.8H178.7C161.1 111.8 146.7 126.2 146.7 143.8V159.8H138.7C121.1 159.8 106.7 174.2 106.7 191.8C106.7 197.7 108.4 203.1 111.2 207.8H106.7C89.1002 207.8 74.7002 222.2 74.7002 239.8V255.8C48.2002 255.8 26.7002 277.3 26.7002 303.8C26.7002 330.3 48.2002 351.8 74.7002 351.8V367.8C74.7002 385.4 89.1002 399.8 106.7 399.8H111.2C108.4 404.5 106.7 409.9 106.7 415.8C106.7 433.4 121.1 447.8 138.7 447.8H146.7V463.8C146.7 481.4 161.1 495.8 178.7 495.8H322.7C340.3 495.8 354.7 481.4 354.7 463.8V447.8H362.7C380.3 447.8 394.7 433.4 394.7 415.8C394.7 409.9 393 404.5 390.2 399.8H394.7C412.3 399.8 426.7 385.4 426.7 367.8V351.8C453.2 351.8 474.7 330.3 474.7 303.8C474.7 277.3 453 256 426.5 256ZM427.2 134.2C415.2 131.4 395.3 124.9 380.5 110.1C365.7 95.2998 359.1 75.3998 356.4 63.3998C368.4 66.1998 388.3 72.6998 403.1 87.4998C417.9 102.2 424.4 122.1 427.2 134.2ZM26.5002 39.9998C26.5002 35.5998 30.1002 31.9998 34.5002 31.9998H338.5C342.9 31.9998 346.5 35.5998 346.5 39.9998C346.5 43.0998 344.7 45.6998 342.2 46.9998C342 47.0998 341.8 47.1998 341.6 47.3998C340.7 47.7998 339.6 47.9998 338.5 47.9998H266.5H234.5H34.5002C30.1002 47.9998 26.5002 44.3998 26.5002 39.9998ZM242.5 63.9998H258.5V112H242.5V63.9998ZM162.5 144C162.5 135.2 169.7 128 178.5 128H234.5H266.5H322.5C331.3 128 338.5 135.2 338.5 144V160H162.5V144ZM122.5 192C122.5 183.2 129.7 176 138.5 176H154.5H346.5H362.5C371.3 176 378.5 183.2 378.5 192C378.5 200.8 371.3 208 362.5 208H138.5C129.7 208 122.5 200.8 122.5 192ZM90.5002 240C90.5002 231.2 97.7002 224 106.5 224H138.5H362.5H394.5C403.3 224 410.5 231.2 410.5 240V256H90.5002V240ZM338.5 464C338.5 472.8 331.3 480 322.5 480H178.5C169.7 480 162.5 472.8 162.5 464V448H338.5V464ZM378.5 416C378.5 424.8 371.3 432 362.5 432H346.5H154.5H138.5C129.7 432 122.5 424.8 122.5 416C122.5 407.2 129.7 400 138.5 400H362.5C371.3 400 378.5 407.2 378.5 416ZM410.5 368C410.5 376.8 403.3 384 394.5 384H362.5H138.5H106.5C97.7002 384 90.5002 376.8 90.5002 368V352H410.5V368ZM426.5 336H410.5H90.5002H74.5002C56.9002 336 42.5002 321.6 42.5002 304C42.5002 286.4 56.9002 272 74.5002 272H90.5002H410.5H426.5C444.1 272 458.5 286.4 458.5 304C458.5 321.6 444.2 336 426.5 336Z" fill="black"/>
</svg>
