<?xml version="1.0" encoding="UTF-8" standalone="no"?> <svg width="64" height="64" viewBox="0 0 64 64" fill="none" xmlns="http://www.w3.org/2000/svg">
<path d="M12 16.1601C14.8498 16.1601 17.16 13.8499 17.16 11.0001C17.16 8.1503 14.8498 5.84009 12 5.84009C9.15018 5.84009 6.83997 8.1503 6.83997 11.0001C6.83997 13.8499 9.15018 16.1601 12 16.1601Z" fill="black"/>
<path d="M24.9099 12.3401H55.9099C56.2414 12.3401 56.5594 12.2084 56.7938 11.974C57.0282 11.7396 57.1599 11.4216 57.1599 11.0901C57.1599 10.7586 57.0282 10.4406 56.7938 10.2062C56.5594 9.97178 56.2414 9.84009 55.9099 9.84009H24.9099C24.5784 9.84009 24.2605 9.97178 24.026 10.2062C23.7916 10.4406 23.6599 10.7586 23.6599 11.0901C23.6599 11.4216 23.7916 11.7396 24.026 11.974C24.2605 12.2084 24.5784 12.3401 24.9099 12.3401V12.3401Z" fill="black"/>
<path d="M12 30.1601C14.8498 30.1601 17.16 27.8499 17.16 25.0001C17.16 22.1503 14.8498 19.8401 12 19.8401C9.15018 19.8401 6.83997 22.1503 6.83997 25.0001C6.83997 27.8499 9.15018 30.1601 12 30.1601Z" fill="black"/>
<path d="M55.9099 23.8401H24.9099C24.5784 23.8401 24.2605 23.9718 24.026 24.2062C23.7916 24.4406 23.6599 24.7586 23.6599 25.0901C23.6599 25.4216 23.7916 25.7395 24.026 25.974C24.2605 26.2084 24.5784 26.3401 24.9099 26.3401H55.9099C56.2414 26.3401 56.5594 26.2084 56.7938 25.974C57.0282 25.7395 57.1599 25.4216 57.1599 25.0901C57.1599 24.7586 57.0282 24.4406 56.7938 24.2062C56.5594 23.9718 56.2414 23.8401 55.9099 23.8401V23.8401Z" fill="black"/>
<path d="M12 44.1601C14.8498 44.1601 17.16 41.8499 17.16 39.0001C17.16 36.1503 14.8498 33.8401 12 33.8401C9.15018 33.8401 6.83997 36.1503 6.83997 39.0001C6.83997 41.8499 9.15018 44.1601 12 44.1601Z" fill="black"/>
<path d="M55.9099 37.8401H24.9099C24.5784 37.8401 24.2605 37.9718 24.026 38.2062C23.7916 38.4406 23.6599 38.7586 23.6599 39.0901C23.6599 39.4216 23.7916 39.7396 24.026 39.974C24.2605 40.2084 24.5784 40.3401 24.9099 40.3401H55.9099C56.2414 40.3401 56.5594 40.2084 56.7938 39.974C57.0282 39.7396 57.1599 39.4216 57.1599 39.0901C57.1599 38.7586 57.0282 38.4406 56.7938 38.2062C56.5594 37.9718 56.2414 37.8401 55.9099 37.8401V37.8401Z" fill="black"/>
<path d="M12 58.1601C14.8498 58.1601 17.16 55.8499 17.16 53.0001C17.16 50.1503 14.8498 47.8401 12 47.8401C9.15018 47.8401 6.83997 50.1503 6.83997 53.0001C6.83997 55.8499 9.15018 58.1601 12 58.1601Z" fill="black"/>
<path d="M55.9099 51.8401H24.9099C24.5784 51.8401 24.2605 51.9718 24.026 52.2062C23.7916 52.4406 23.6599 52.7586 23.6599 53.0901C23.6599 53.4216 23.7916 53.7396 24.026 53.974C24.2605 54.2084 24.5784 54.3401 24.9099 54.3401H55.9099C56.2414 54.3401 56.5594 54.2084 56.7938 53.974C57.0282 53.7396 57.1599 53.4216 57.1599 53.0901C57.1599 52.7586 57.0282 52.4406 56.7938 52.2062C56.5594 51.9718 56.2414 51.8401 55.9099 51.8401V51.8401Z" fill="black"/>
</svg>
