<?xml version="1.0" encoding="UTF-8" standalone="no"?> <svg xmlns="http://www.w3.org/2000/svg" viewBox="0 0 64 64"><g id="_16-Pizza" data-name="16-Pizza"><path id="path9533" d="M54,41.99992,6.18367,60.81624a2.26069,2.26069,0,0,1-3-3L22,9.99989s17.8125.24983,24.81249,7.25006c7,7,7.1875,24.75,7.1875,24.75Z" fill="#fdd5a6"/><path id="path9531" d="M57,45A4,4,0,0,1,53,41,30,30,0,0,0,23,11a4,4,0,1,1,0-8A38,38,0,0,1,61,41,3.99989,3.99989,0,0,1,57,45Z" fill="#fcb860"/><path id="circle9535" d="M46,34.99993a6,6,0,1,1-6-6A6,6,0,0,1,46,34.99993Z" fill="#fc6067"/><path id="circle9537" d="M29,36A4,4,0,0,1,25.00006,40H25a4,4,0,0,1-4-4V36a4,4,0,0,1,8,0Z" fill="#fc6067"/><path id="path9539" d="M19.625,16.03309,15.39453,26.787A5.99674,5.99674,0,1,0,19.625,16.0332Z" fill="#fc6067"/><path id="path10914-6" d="M53.85156,39.00576,3.7207,58.916a3.51709,3.51709,0,0,1-.69922.1894,2.24263,2.24263,0,0,0,3.16211,1.71086L54,41.99981s-.01513-1.16484-.14842-2.99417Z" fill="#fdcc93"/><path id="path10918-0" d="M30.46093,3.73624a39.0118,39.0118,0,0,1,27.541,37.26563,4.97,4.97,0,0,1-1.89453,3.88864A3.96758,3.96758,0,0,0,61,40.99979,38.01012,38.01012,0,0,0,30.46092,3.73613Z" fill="#fbb04f"/><path id="path9541" d="M18,47.9999a5.9929,5.9929,0,0,0-4.51367,9.94329l10.50587-4.13478A6,6,0,0,0,18,47.99978Z" fill="#fc6067"/><path id="path10922-1" d="M23.26758,51.15231,12.21289,55.54292a5.99959,5.99959,0,0,0,1.27344,2.40038l10.50586-4.13478A5.99982,5.99982,0,0,0,23.26758,51.15231Z" fill="#fb4f56"/><path d="M23,2a4.98568,4.98568,0,0,0-2.57269,9.26489L2.25293,57.4502a3.31943,3.31943,0,0,0,.67725,3.61914,3.2042,3.2042,0,0,0,2.28564.93652,3.64332,3.64332,0,0,0,1.334-.25879L52.73486,43.57233A4.9857,4.9857,0,0,0,62,41,39.0439,39.0439,0,0,0,23,2ZM20.25159,17.174a4.99015,4.99015,0,1,1-3.6258,9.21387ZM13,54a4.98657,4.98657,0,0,1,9.90442-.83832l-9.069,3.56879A4.98137,4.98137,0,0,1,13,54Zm11.81482-1.59015a6.99692,6.99692,0,1,0-12.879,5.06818L5.81738,59.88574a1.33492,1.33492,0,0,1-1.47265-.23047,1.33244,1.33244,0,0,1-.23047-1.47265L15.89209,28.25244A6.99155,6.99155,0,1,0,20.993,15.28986l1.32184-3.35913A4.927,4.927,0,0,0,23,12,29.03276,29.03276,0,0,1,52,41a4.92911,4.92911,0,0,0,.06921.68469ZM57,44a3.00328,3.00328,0,0,1-3-3A31.03536,31.03536,0,0,0,23,10a3,3,0,0,1,0-6A37.04192,37.04192,0,0,1,60,41,3.00328,3.00328,0,0,1,57,44ZM40,28a7,7,0,1,0,7,7A7.00787,7.00787,0,0,0,40,28Zm0,12a5,5,0,1,1,5-5A5.00588,5.00588,0,0,1,40,40ZM25,31a5,5,0,1,0,5,5A5.00588,5.00588,0,0,0,25,31Zm0,8a3,3,0,1,1,3-3A3.00328,3.00328,0,0,1,25,39Zm6,5.99994a1,1,0,1,1-1-1A1,1,0,0,1,31,44.99994ZM33,24a1,1,0,1,1-1-1A1,1,0,0,1,33,24ZM16,42a1,1,0,1,1-1-1A1,1,0,0,1,16,42Z"/></g></svg>